<svg id="Layer_1" data-name="Layer 1" xmlns="http://www.w3.org/2000/svg" viewBox="0 0 60 64.14"><defs><style>.cls-1{fill:#842002;}</style></defs><title>Ai</title><path class="cls-1" d="M56,4V56H4V4H56m4-4H0V60H60V0h0Z" transform="translate(0 4.14)"/><path class="cls-1" d="M14.2,42.28l9.9-25.77h3.67L38.31,42.28H34.43l-3-7.8H20.65l-2.83,7.8H14.2Zm7.44-10.58h8.74l-2.69-7.14q-1.23-3.25-1.83-5.34a32.85,32.85,0,0,1-1.39,4.92Z" transform="translate(0 4.14)"/><path class="cls-1" d="M40.39,22.6V19.37H43.2V22.6H40.39Zm0,19.67V25.68H43.2V42.28H40.39Z" transform="translate(0 4.14)"/><text y="4.14"/><text y="4.14"/></svg>
