<svg id="Layer_1" data-name="Layer 1" xmlns="http://www.w3.org/2000/svg" viewBox="0 0 55 57.75"><defs><style>.cls-1{fill:#fdf3a9;}</style></defs><title>ajs</title><path class="cls-1" d="M30,1L2,10,6.5,46l23,12.75,23.63-13L57,10ZM50.13,44.13L29.44,55.75l-21-11.66-3.67-32L29.5,4l24.63,8.13Z" transform="translate(-2 -1)"/><polygon class="cls-1" points="32.88 29 27.48 17.53 27.47 29 32.88 29"/><polygon class="cls-1" points="27.51 3.63 44.63 42 39 42 35.52 33.76 27.46 33.74 27.44 53.44 47.6 42.4 51.58 11.42 27.51 3.63"/><polygon class="cls-1" points="22.06 29 27.25 17.03 27.48 17.53 27.5 3.63 27.51 3.63 27.5 3.6 9.87 42 16.41 42 19.78 33.72 27.46 33.74 27.47 29 22.06 29"/></svg>