<svg id="Layer_1" data-name="Layer 1" xmlns="http://www.w3.org/2000/svg" viewBox="0 0 44.3 40.09"><defs><style>.cls-1{fill:#842002;}</style></defs><title>atom</title><path class="cls-1" d="M49.69,26.66c-3.52-2.61-11.24-4.86-18.78-5.48-1.1-.09-2.4-0.16-3.81-0.17,3.8-4.43,7.84-7.77,10.57-8.93,1.69-.71,3-0.74,3.84-0.06,2.16,1.68,1.35,7.08,1.34,7.13a0.5,0.5,0,0,0,1,.15c0-.24.91-6-1.71-8.07-1.17-.91-2.8-0.94-4.85-0.07-3.24,1.37-7.65,5.2-11.52,9.85a40.84,40.84,0,0,0-6.51.61,15.93,15.93,0,0,1-.71-6.72C19,12.75,19.84,11.45,21,11.06c2.41-.79,5.65,2.1,5.68,2.13a0.5,0.5,0,0,0,.67-0.74c-0.15-.14-3.7-3.3-6.66-2.33-1.57.51-2.64,2.06-3.16,4.6a16.72,16.72,0,0,0,.69,7.12,21.47,21.47,0,0,0-9,4,4.13,4.13,0,0,0-1.37,3.76,4.66,4.66,0,0,0,.56,1.59c0.72,1.27,2.23,2.69,5.24,3.86A0.5,0.5,0,0,0,14,34.09c-3.92-1.52-5-3.38-5.17-4.68a3.09,3.09,0,0,1,1-2.83,20.54,20.54,0,0,1,8.66-3.81,53.39,53.39,0,0,0,2,5.64C17.85,33.1,15.14,39.53,16,45.59a4.13,4.13,0,0,0,2.55,3.09,4.66,4.66,0,0,0,1.66.32c1.46,0,3.45-.55,6-2.55a0.5,0.5,0,0,0-.62-0.79c-3.3,2.6-5.44,2.57-6.65,2.09A3.09,3.09,0,0,1,17,45.45c-0.73-5,1.11-10.67,4-15.88a64.66,64.66,0,0,0,9.68,15.7C33.54,48.42,36,50,38.07,50l0.35,0a4.35,4.35,0,0,0,3.79-3c2.2-5.69-1.74-17.55-3.47-19.43a0.5,0.5,0,0,0-.74.68c1.59,1.73,5.31,13.13,3.27,18.4A3.33,3.33,0,0,1,38.33,49c-1.8.17-4.15-1.36-6.85-4.39a62.88,62.88,0,0,1-9.79-16.13A54.53,54.53,0,0,1,26.27,22c9.42,0,19.16,2.74,22.82,5.46,1.47,1.09,2.14,2.19,2,3.28-0.35,2.71-5.41,4.75-5.46,4.77a0.5,0.5,0,1,0,.37.93c0.23-.09,5.65-2.28,6.09-5.57C52.29,29.4,51.48,28,49.69,26.66ZM23,24.57c-0.56.8-1.19,1.73-1.83,2.77-0.67-1.65-1.24-3.26-1.69-4.76A38.18,38.18,0,0,1,24.94,22C24.29,22.86,23.65,23.71,23,24.57Z" transform="translate(-7.82 -9.92)"/><circle class="cls-1" cx="22.62" cy="20.05" r="2.72"/></svg>