<svg id="Layer_1" data-name="Layer 1" xmlns="http://www.w3.org/2000/svg" viewBox="0 0 52 50"><defs><style>.cls-1{fill:none;}.cls-2{fill:#842002;}</style></defs><title>brackets</title><path class="cls-1" d="M51,17a7,7,0,0,0-7-7H16a7,7,0,0,0-7,7V43a7,7,0,0,0,7,7H44a7,7,0,0,0,7-7V17ZM28,23H20V37h8v6H14V17H28v6ZM46,43H32V37h8V23H32V17H46V43Z" transform="translate(-4 -5)"/><path class="cls-2" d="M56,17A12,12,0,0,0,44,5H16A12,12,0,0,0,4,17V43A12,12,0,0,0,16,55H44A12,12,0,0,0,56,43V17ZM51,43a7,7,0,0,1-7,7H16a7,7,0,0,1-7-7V17a7,7,0,0,1,7-7H44a7,7,0,0,1,7,7V43Z" transform="translate(-4 -5)"/><polygon class="cls-2" points="10 38 24 38 24 32 16 32 16 18 24 18 24 12 10 12 10 38"/><polygon class="cls-2" points="28 18 36 18 36 32 28 32 28 38 42 38 42 12 28 12 28 18"/></svg>