<svg id="Layer_1" data-name="Layer 1" xmlns="http://www.w3.org/2000/svg" viewBox="0 0 60 64.14"><defs><style>.cls-1{fill:#842002;}</style></defs><title>testSvg</title><path class="cls-1" d="M56,4V56H4V4H56m4-4H0V60H60V0h0Z" transform="translate(0 4.14)"/><path class="cls-1" d="M10.06,39.85V18.38h7.4a17.94,17.94,0,0,1,3.82.31,7.27,7.27,0,0,1,3.15,1.54A8.74,8.74,0,0,1,27,23.9a14.4,14.4,0,0,1,.84,5.1,15,15,0,0,1-.57,4.34,10.52,10.52,0,0,1-1.46,3.13,7.76,7.76,0,0,1-2,1.95,8,8,0,0,1-2.56,1.08,14.63,14.63,0,0,1-3.45.37H10.06Zm2.84-2.53h4.58a11.13,11.13,0,0,0,3.33-.4,4.77,4.77,0,0,0,1.93-1.11,6.77,6.77,0,0,0,1.57-2.72A13.29,13.29,0,0,0,24.89,29a10,10,0,0,0-1.11-5.18,5.57,5.57,0,0,0-2.69-2.42,11.11,11.11,0,0,0-3.68-.44H12.91V37.32Z" transform="translate(0 4.14)"/><path class="cls-1" d="M34.26,39.85L29.5,24.3h2.72l2.48,9,0.92,3.34q0.06-.25.81-3.21l2.48-9.11h2.71l2.33,9,0.78,3,0.89-3,2.67-9h2.56L46,39.85H43.24l-2.48-9.32-0.6-2.65L37,39.85H34.26Z" transform="translate(0 4.14)"/><text y="4.14"/></svg>
