<svg id="Layer_2" data-name="Layer 2" xmlns="http://www.w3.org/2000/svg" viewBox="0 0 24.9 58.11"><defs><style>.cls-1{fill:#fdf3a9;}</style></defs><title>gulp</title><path class="cls-1" d="M20.31,45l1.79,4L22.48,57h0s0-.07,0-0.07c0,0.4,3.26,1.75,7.15,1.75s6.91-1.33,6.93-1.73l0.62-8.84L38.81,45a27,27,0,0,1-9.25,1.45A26.65,26.65,0,0,1,20.31,45Z" transform="translate(-17.3 -0.58)"/><path class="cls-1" d="M29.75,17.7c6.88,0,12.45-.93,12.45-2.07,0-.91-3.53-1.68-8.42-2l1.29-4.76,6.34-7L39.93,0.58,33.26,7.92l-1.54,5.66-2,0c-6.88,0-12.45.93-12.45,2.07S22.87,17.7,29.75,17.7Zm3.47-1.95,0.09-.34a0.55,0.55,0,0,1,.48.27,0.66,0.66,0,0,1-.58.29V15.75Zm-2-.39-0.07.25h0V16a0.66,0.66,0,0,1-.57-0.29A0.74,0.74,0,0,1,31.24,15.36Z" transform="translate(-17.3 -0.58)"/><path class="cls-1" d="M29.75,18.48c-6.88,0-12.45-1.29-12.45-2.43l1.27,14a9.77,9.77,0,0,1,3.08-5.29,2.88,2.88,0,0,1,2.18-.69A3.25,3.25,0,0,1,26,25.87a0.5,0.5,0,1,1-.86.5,2.49,2.49,0,0,0-1.46-1.32,2,2,0,0,0-1.42.5,9.1,9.1,0,0,0-2.88,5.69c-0.25,2.26.21,2.67,0.36,2.75a0.83,0.83,0,0,0,.6,0A6,6,0,0,0,23,31.58c0.93-3.27,1-3.24,1.51-3.13l0.23,0.06,0.11,0.22a5,5,0,0,1-.64,2.74c-0.08.16-.17,0.32-0.26,0.48-0.29,1-.68,2.41-1.2,4.31a0.5,0.5,0,0,1-.48.37l-0.13,0A0.5,0.5,0,0,1,21.77,36l0.59-2.14a5.17,5.17,0,0,1-1.71,1.06,1.74,1.74,0,0,1-1.37,0A1.29,1.29,0,0,1,19,34.66L19.75,43h0s0,0.45,0,.47c0,1.09,4.4,2.18,9.82,2.18s9.82-1.2,9.82-2.29c0,0,0-.36,0-0.36h0l1-9.3a6.17,6.17,0,0,1-1.86,1.22c-0.57.15-1.57,0.3-1.88-.32s0.13-.92.68-1.61c0.34-.42.61-0.72,0.82-1a2,2,0,0,0,.59-0.85,1.13,1.13,0,0,0,0-.84s-0.33-.15-1.54.74a6.47,6.47,0,0,0-1,.92c-2,5.54-2.43,6.33-2.85,6.33A0.74,0.74,0,0,1,33,38.29l-0.29-.1-0.08-.37a9.05,9.05,0,0,1,.86-3.51,2.08,2.08,0,0,1-2.13.28,0.92,0.92,0,0,1-.19-0.19,1.82,1.82,0,0,1-1.66.58,1.37,1.37,0,0,1-.79-0.67A1.77,1.77,0,0,1,28.6,34a5,5,0,0,1-.77.59c-0.34.21-1.38,0.85-2,.34a1.27,1.27,0,0,1-.3-1.21,20.87,20.87,0,0,1,1.15-4,0.5,0.5,0,1,1,.93.36,19.19,19.19,0,0,0-1.1,3.77,1.71,1.71,0,0,0,0,.25,2.55,2.55,0,0,0,.83-0.38,4.69,4.69,0,0,0,1.26-1.18,7.65,7.65,0,0,1,1.32-2.93l0.24-.27,0.67,0.23,0,0.32a7.24,7.24,0,0,1-1.32,3.07,1.41,1.41,0,0,0,.12.88,0.43,0.43,0,0,0,.21.21c0.1,0,.4,0,1.1-0.76C31,31,33,27,33.07,26.83,34,25,34.39,24.75,34.84,24.9a0.6,0.6,0,0,1,.39.42c0.27,1-1.59,6.19-3.29,8.3a0.39,0.39,0,0,0,.05.17,4.26,4.26,0,0,0,2.52-1.5,5.52,5.52,0,0,0,1-1.51l0.09-.24c0.2-.56.21-0.6,0.42-0.68l0.58-.25,0.1,0.57c0.78-.55,1.83-1.15,2.55-0.65a1.85,1.85,0,0,1,.45,1.91,2.85,2.85,0,0,1-.81,1.28c-0.2.23-.46,0.52-0.79,0.92L37.75,34a3.18,3.18,0,0,0,.5-0.09,7.27,7.27,0,0,0,2.28-1.88L42.2,16.16C42.2,17.29,36.63,18.48,29.75,18.48Z" transform="translate(-17.3 -0.58)"/><path class="cls-1" d="M33.69,27.85a28,28,0,0,0-1.21,3A27.15,27.15,0,0,0,33.69,27.85Z" transform="translate(-17.3 -0.58)"/></svg>