<svg id="Layer_1" data-name="Layer 1" xmlns="http://www.w3.org/2000/svg" viewBox="0 0 50.6 52.02"><defs><style>.cls-1{fill:#fdf3a9;}</style></defs><title>jade</title><path class="cls-1" d="M42.86,32.4a0.52,0.52,0,0,1,0,.8,3.56,3.56,0,0,1-2.35.3c-1.36-.15-3-0.21-3.66-1.48a0.08,0.08,0,0,1,0,0c-0.89-.49.61-0.83,1-0.89a8.45,8.45,0,0,1,2.9.34,3.82,3.82,0,0,1,2.14,1h0ZM55.23,52.6c-0.64.44-.36,1.21-0.8,1.74a3.06,3.06,0,0,1-2.1.51c-2.44,0-4.81-.17-7.2,0a9.29,9.29,0,0,0-1.74.28,0.93,0.93,0,0,1-.64,0c-0.49-.25-0.93-1.06-1.57-0.8s-0.93,1-1.57.53c-1.16-.87-2.14-0.08-3.37.15s-2.48-.44-3.73-0.11a4.47,4.47,0,0,1-2.77.23c-1-.34-1.21-1.08-0.38-1.78a6.16,6.16,0,0,1,4.57-1.12,54.13,54.13,0,0,0,7.41-.11,0.11,0.11,0,0,1,.13.11c1.06,0.42,1.74-.42,2.35-1.16a0.18,0.18,0,0,1,.28,0c0.89,1.31,2-.17,3.09,0a0.93,0.93,0,0,1,.76.38,0.74,0.74,0,0,1,.11.42c0,0.68.91,0.53,0.89-.15a0.19,0.19,0,0,1,.23-0.17c0.89,0.36,2,.83,2.75-0.11a5.18,5.18,0,0,0,.76-2.86,62.72,62.72,0,0,0-.23-7.73,42,42,0,0,1-.13-7.48,52.86,52.86,0,0,0,.23-7.33c0-1.29-.08-2.58,0-3.88a26.18,26.18,0,0,0,.13-3.64c-0.13-1.06-.76-2-0.89-3a7.79,7.79,0,0,1,.23-2.88,8.14,8.14,0,0,0,.4-1.86c0-.51,0-1,0-1.55a1.36,1.36,0,0,1,.15-0.87c0.3-.36.44-0.89-0.25-1-1.67-.21-3.39-1.27-5-0.23a4,4,0,0,1,0,1.12l0.23,0.3a3.55,3.55,0,0,0,1.25.25c0.51,0,1.06-.13,1.57-0.08a0.7,0.7,0,0,1,.64.91,4.08,4.08,0,0,1-.61,1,3.62,3.62,0,0,0-.28,1.91c0,1.55,0,3.09,0,4.6,0,1.27.17,2.56,0.25,3.83a0.17,0.17,0,0,1,.11.11c0,1.44.53,2.86,0.55,4.3,0,0-.38,1.78-0.38,1.78,0,1.86-.17,5.32-0.17,5.32,0,3.18-.57,6.33,0,9.49,0.23,1.27-.25,2.5-0.3,3.77a34.3,34.3,0,0,1-.08,4.17,0.17,0.17,0,0,1-.11.21,36.05,36.05,0,0,1-8.81.49,5.77,5.77,0,0,0-2.33.17,2.25,2.25,0,0,1-1,.28c-0.42,0-.64-0.38-1-0.44a12.78,12.78,0,0,0-1.48-.25,7,7,0,0,0-3.79.28,2.63,2.63,0,0,1-2.08-.11c-0.8-.34-1.42-0.74-2.31-0.3a4.83,4.83,0,0,1-1.08.44,1.41,1.41,0,0,1-.93-0.13,3.34,3.34,0,0,0-1.93-.21,0.18,0.18,0,0,1-.13.3c-4.3-.23-8.62.28-12.92,0.34-0.21,0-.36.28-0.49,0.28H9.57a0.48,0.48,0,0,1-.11-0.42C8.89,50.21,9,48.11,9.06,47.5c0.17-4-.34-8-0.44-12a33.1,33.1,0,0,1,.28-6,34.57,34.57,0,0,0,.34-6.61c-0.11-4.43.34-8.83,0.21-13.26a0.09,0.09,0,0,1,.13-0.08l0,0a10.55,10.55,0,0,1,3.64-.11,0,0,0,0,1,0,0l0.17,0h1.31a0.12,0.12,0,0,1,.11,0c2.33,0,4.66-.17,7-0.28A8.82,8.82,0,0,0,24.33,9a3.59,3.59,0,0,1,1.31-.3,23.42,23.42,0,0,1,3.18.64c0.74,0.15,1.25-1.12,1.91-.68,1,0.64,2.14.4,3.28,0.42,0.61,0,1.19-.11,1.8-0.11a4.09,4.09,0,0,1,.91.15,1.66,1.66,0,0,1,.89.11L43,9.08a8.7,8.7,0,0,0,3.3-.3,0.87,0.87,0,0,0,.51-0.42c0-.08-0.08-0.17-0.13-0.28a2.27,2.27,0,0,0-.28-0.44,14.55,14.55,0,0,0-3.73-.34,39.2,39.2,0,0,0-5,.28,29.06,29.06,0,0,1-4.7.11c-0.91-.08-2.63-0.49-3.41.15a0.23,0.23,0,0,1-.23,0c-1.48-1.21-3.43.61-5.12,0.11a7.43,7.43,0,0,0-3-.38,30.34,30.34,0,0,1-3.11.25c-2.31,0-4.6.13-6.9,0-0.51,0-1,0-1.46-.08a2.86,2.86,0,0,0-1.33-.08c-0.64.23-.76,0.44-0.7,0.64s-0.42.93-.42,1.33l0,1.06a20.35,20.35,0,0,1-.49,4.53A5.59,5.59,0,0,0,6.48,18a9.53,9.53,0,0,0,.8,1.36,6.26,6.26,0,0,1,.38,2.86L7.41,31.32c-0.11,3-.3,6.08-0.17,9.13,0.11,2.82.55,5.7,0.17,8.49-0.13.93-1.25,2.58-.17,3.24a4.81,4.81,0,0,0,2,.51,30.32,30.32,0,0,0,5.17-.28,14.58,14.58,0,0,1,1.91-.21,3.51,3.51,0,0,1,1.4.21,5,5,0,0,0,1.48.42A1.11,1.11,0,0,0,20,52.6a3.13,3.13,0,0,1,2-.34,6,6,0,0,0,2.31.11,3.88,3.88,0,0,1,1.48,0L26,52.48c0.17-.08-0.11.21-0.28,0.28-1,.38-0.66,1.61-0.76,2.44a0.14,0.14,0,0,1-.15.11,1.17,1.17,0,0,1-1.12-.4c-0.44-.83-1.52-1.4-1.52.34a0.14,0.14,0,0,1-.15.15,0.13,0.13,0,0,1-.15-0.15,7,7,0,0,0-1.25-.76A2.31,2.31,0,0,0,18.76,54a10.85,10.85,0,0,0-1.12.53c-0.68.83-1.4,1.72-2.39,1.19-0.21-.11-1-0.83-1.21-0.68a2.33,2.33,0,0,1-.8.64A7.1,7.1,0,0,1,10.4,56a0.15,0.15,0,0,1-.15-0.13c0-.38-0.25-1.14-0.78-0.68-0.13.11-.23,0.21-0.36,0.34a2.41,2.41,0,0,1-.53.38c-0.64.25-2.58-.08-2.84-0.53a3.14,3.14,0,0,1-.36-1.06,26.4,26.4,0,0,1-.08-2.9C5.21,49,5,46.67,4.85,44.28a21.38,21.38,0,0,1-.11-3.68A6.37,6.37,0,0,1,5.23,38a1.09,1.09,0,0,0-.34-1.46A0.89,0.89,0,0,1,4.74,36a19.36,19.36,0,0,1,.13-2.71c0-.66.15-1.31,0.15-2s-0.11-1-.15-1.48A1.13,1.13,0,0,1,5,29.14,1,1,0,0,0,5.06,28a8.1,8.1,0,0,1,0-3,18.57,18.57,0,0,0,0-3.43,22.69,22.69,0,0,1-.3-3.79C4.89,16.58,5,15.52,5,14.38c0.11-2.08.11-4.17,0-6.25V8.62S4.89,6,6,5.34c1.69-.93,3.75-0.78,5.59-0.87,2.39-.11,4.81.13,7.2,0.13a17.94,17.94,0,0,0,4.13-.34A11,11,0,0,1,25.79,4c1.19,0.08,2.33.38,3.49,0.49a23.77,23.77,0,0,0,3.47,0,69.65,69.65,0,0,1,7.58,0l3.94,0.17a7.19,7.19,0,0,0,1.91,0l1.12-.38a3.92,3.92,0,0,1,2.2.17l3,0.7a0.88,0.88,0,0,1,.91.15c0.55,0.51,0,1.14.42,1.72a4,4,0,0,1,1,2,6.86,6.86,0,0,1-.15,2.86,2.77,2.77,0,0,0-.23,1.93A12.25,12.25,0,0,1,55,15a9.23,9.23,0,0,1,.15,2.75c0,1.06-.11,2.14-0.23,3.18-0.08.68-.36,1.33-0.38,2a6.38,6.38,0,0,0,.25,1.55c0.36,1.74-1.16,2.84-1.44,4.43-0.15.87,0.83,0.49,1.27,1a1.82,1.82,0,0,1,.11,1.25c-0.11.93,0.17,1.84,0.13,2.77a11.39,11.39,0,0,0-.13,3.28,4.44,4.44,0,0,1,.13,2c-0.15.66-.91,2.31,0.11,2.6a0.1,0.1,0,0,1,.08.11,1.69,1.69,0,0,1-.17.78c-0.44,1,.25.8,0.38,1.46a3,3,0,0,1-.34,1.4c-0.15.91,0.34,1.61,0.3,2.5s-0.49,1.29-.34,2.05a0.11,0.11,0,0,1,.11.11,2.35,2.35,0,0,1,0,1.27c-0.21.57-.44,0.74,0.21,1.08,0.17-.13.17,0,0.06,0.08h0ZM44.15,24.5a44,44,0,0,0-1.46-7.43c-0.36-1-.53-2.08-1.69-2.27-1.52-.25-1,1-0.8,2.22a56.29,56.29,0,0,0,.91,5.61c0.34,1.27,1,2.77-.74,1.8-2.84-1.72-3.81-5.46-5-8.26-0.51-1.27-2-4.3-3-5.06-0.49-.36-2.88-0.89-3.35-0.57-1,.68,2.08,5.44,2.5,6.29a40.18,40.18,0,0,0,3.13,5.51c0.87,1.21,2.22,2.33.3,3S32,25,30.66,24a7.53,7.53,0,0,0-3.81-1.08c-3.73-.44-7.26,0-10.25,2.46a12.31,12.31,0,0,0-3.11,4.55,25.65,25.65,0,0,0-1.27,4.19c-0.76-.13-0.3-1.91-1.27-0.87s0.25,3.54.64,4.45c0.87,2,1.78,4,2.46,6.14s0.83,2.08,2.77,2.24c2.48,0.23,4.91-.53,7.35-0.83,0,0-4.32-2.69,4.21.25,1.91,0.66,3.92.49,5.91,0.55,1.42-.34,1.46-2.77,2.2-3.92a14.64,14.64,0,0,1,2.08-2.75c0.61-.23,1.48.4,2.1,0.49,3.56,0.55,4.66-2.37,4.09-5.23a20.35,20.35,0,0,1,.15-7.22c0.15-.72-0.61-2.27-0.74-2.92h0ZM28.25,54.91c-0.38-.36-1-0.44-1.33-0.83a0.77,0.77,0,0,1-.23-0.7,0,0,0,0,1,0,0,0.6,0.6,0,0,1,.8-0.76,0.91,0.91,0,0,1,.61.53,3.39,3.39,0,0,1-.28.93,2.69,2.69,0,0,1,.64.68,0.13,0.13,0,0,1-.19.17h0Z" transform="translate(-4.7 -3.99)"/></svg>