<svg id="Layer_1" data-name="Layer 1" xmlns="http://www.w3.org/2000/svg" viewBox="0 0 50.48 48.95"><defs><style>.cls-1{fill:#fdf3a9;}</style></defs><title>jQ</title><path class="cls-1" d="M38.33,22.48A7.82,7.82,0,0,0,41,23.91c6.22,1.86,11.23.4,14.75-2.55-9.35,1.76-18.63-3.08-21.6-11.75a17.17,17.17,0,0,1-.89-4.78C31,10.36,32.05,17.36,38.33,22.48Z" transform="translate(-5.29 -4.83)"/><path class="cls-1" d="M23,16.2A24.12,24.12,0,0,1,21.8,9.48c-3.24,7.78-1.74,17.6,7.08,24.8a11,11,0,0,0,3.79,2c8.73,2.62,15.78.56,20.71-3.58C40.25,35.17,27.22,28.38,23,16.2Z" transform="translate(-5.29 -4.83)"/><path class="cls-1" d="M9.38,23a35,35,0,0,1-1.81-9.74c-4.71,11.28-2.52,25.52,10.27,36a15.93,15.93,0,0,0,5.5,2.9c12.67,3.79,22.89.81,30-5.2C34.33,50.48,15.43,40.64,9.38,23Z" transform="translate(-5.29 -4.83)"/></svg>