<svg id="Layer_1" data-name="Layer 1" xmlns="http://www.w3.org/2000/svg" viewBox="0 0 60 60"><defs><style>.cls-1{fill:#fdf3a9;}</style></defs><title>Js</title><path class="cls-1" d="M52,0H8A8,8,0,0,0,0,8V52a8,8,0,0,0,8,8H52a8,8,0,0,0,8-8V8A8,8,0,0,0,52,0ZM36,49.6a11.66,11.66,0,0,1-.74,4.59A5.12,5.12,0,0,1,33,56.68a7.49,7.49,0,0,1-3.66.85,6.16,6.16,0,0,1-4.76-1.79A7.38,7.38,0,0,1,23,50.42L25.79,50a6,6,0,0,0,1,3.71,3.19,3.19,0,0,0,2.5,1,3.72,3.72,0,0,0,2-.54,2.94,2.94,0,0,0,1.26-1.47,9.24,9.24,0,0,0,.41-3V34h3V49.6Zm20,4.69a6.46,6.46,0,0,1-2.82,2.36,9.82,9.82,0,0,1-4.14.84,12.36,12.36,0,0,1-4.89-.85A6.83,6.83,0,0,1,41,54.09a7.24,7.24,0,0,1-1.18-3.86L42.54,50a5.91,5.91,0,0,0,.89,2.64,4.83,4.83,0,0,0,2.16,1.67,8.17,8.17,0,0,0,3.3.64,7.9,7.9,0,0,0,2.87-.48,4,4,0,0,0,1.85-1.33,3.08,3.08,0,0,0,.61-1.84,2.8,2.8,0,0,0-.59-1.77,4.35,4.35,0,0,0-1.93-1.27,38,38,0,0,0-3.82-1,19.48,19.48,0,0,1-4.15-1.34,5.81,5.81,0,0,1-2.29-2,4.9,4.9,0,0,1-.75-2.67,5.46,5.46,0,0,1,.92-3A5.72,5.72,0,0,1,44.3,36a10.23,10.23,0,0,1,3.94-.73,10.78,10.78,0,0,1,4.21.77,6.08,6.08,0,0,1,2.81,2.26,6.5,6.5,0,0,1,1.05,3.38l-2.72.21a4.4,4.4,0,0,0-1.49-3.08,5.79,5.79,0,0,0-3.74-1,6,6,0,0,0-3.76.95A2.83,2.83,0,0,0,43.42,41a2.44,2.44,0,0,0,.83,1.9q0.82,0.75,4.29,1.53a28.37,28.37,0,0,1,4.75,1.37A6.52,6.52,0,0,1,56.06,48,5.34,5.34,0,0,1,57,51.06,5.85,5.85,0,0,1,56,54.29Z"/></svg>