<svg id="Layer_1" data-name="Layer 1" xmlns="http://www.w3.org/2000/svg" viewBox="0 0 46 51.72"><defs><style>.cls-1{fill:#fdf3a9;}</style></defs><title>njs</title><path class="cls-1" d="M51.83,16.34L31.08,4.41a2.08,2.08,0,0,0-2,0L8.19,16.34A2.2,2.2,0,0,0,7,18.07V41.93a2.17,2.17,0,0,0,1.17,1.73l9.76,5.59,4.19-2.15-0.05,0c1.55-1.07,2.18-3.32,2.18-6.59L24.1,20H20.88L20.81,41.3c0,2.07-1.46,3.48-3.89,2.81l-0.12,0L11,40.78V19.22L30,8.45,49,19.22V40.78L30.17,51.55l-4.89-3.2a18.43,18.43,0,0,1-4.12,2.26l7.87,5a2,2,0,0,0,2,0L51.84,43.66A2.17,2.17,0,0,0,53,41.93V18.07A2.17,2.17,0,0,0,51.83,16.34Z" transform="translate(-7 -4.14)"/><path class="cls-1" d="M36,37.61C32.16,37.61,30,37,29.3,34H25.76c0.56,3,3.39,5.63,10,5.63,6.4,0,9.52-2.33,9.52-5.37,0-2.44-1.32-4.47-8.77-5.78-4.59-.81-6.06-1.52-6.06-3.28s1.77-3,5-3c3.84,0,5.27,1.83,5.76,2.83h3.54c-0.38-2-2.93-4.87-9.18-4.87-5.83,0-8.69,2.38-8.69,5.21,0,2.66,2.14,4.23,8.31,5.32,5.23,0.9,6.51,2,6.51,3.88S40,37.61,36,37.61Z" transform="translate(-7 -4.14)"/></svg>