<svg id="Layer_1" data-name="Layer 1" xmlns="http://www.w3.org/2000/svg" viewBox="0 0 60 64.14"><defs><style>.cls-1{fill:#842002;}</style></defs><title>Ps</title><path class="cls-1" d="M56,4V56H4V4H56m4-4H0V60H60V0h0Z" transform="translate(0 4.14)"/><path class="cls-1" d="M12.15,43.28V17.51h9.72a23.47,23.47,0,0,1,3.92.25A7.77,7.77,0,0,1,29,19,6.32,6.32,0,0,1,31,21.44,7.89,7.89,0,0,1,31.82,25a7.92,7.92,0,0,1-2.09,5.56q-2.09,2.28-7.56,2.28H15.56V43.28H12.15Zm3.41-13.52h6.66q3.3,0,4.69-1.23a4.38,4.38,0,0,0,1.39-3.46,4.66,4.66,0,0,0-.82-2.77,3.82,3.82,0,0,0-2.15-1.52,14.57,14.57,0,0,0-3.18-.23H15.56v9.21Z" transform="translate(0 4.14)"/><path class="cls-1" d="M34.49,37.7l3.13-.49a4.37,4.37,0,0,0,1.47,2.88,5.12,5.12,0,0,0,3.37,1,5,5,0,0,0,3.23-.89,2.65,2.65,0,0,0,1.05-2.08,1.92,1.92,0,0,0-.93-1.69,13.72,13.72,0,0,0-3.23-1.07,29.51,29.51,0,0,1-4.83-1.52A4.61,4.61,0,0,1,35,29.56a4.81,4.81,0,0,1,.57-2.31,5.12,5.12,0,0,1,1.56-1.77,6.52,6.52,0,0,1,2-.92,9.57,9.57,0,0,1,2.73-.38,10.8,10.8,0,0,1,3.86.63,5.25,5.25,0,0,1,2.45,1.71,6.7,6.7,0,0,1,1.09,2.89l-3.09.42A3.38,3.38,0,0,0,45,27.6a4.47,4.47,0,0,0-2.86-.81,5.17,5.17,0,0,0-3.11.72,2.1,2.1,0,0,0-.93,1.69,1.75,1.75,0,0,0,.39,1.11,2.79,2.79,0,0,0,1.21.84q0.47,0.18,2.79.81a38.91,38.91,0,0,1,4.68,1.47,4.75,4.75,0,0,1,2.08,1.66A4.64,4.64,0,0,1,50,37.79a5.31,5.31,0,0,1-.92,3,6,6,0,0,1-2.66,2.16,9.69,9.69,0,0,1-3.94.76,8.77,8.77,0,0,1-5.55-1.51A7,7,0,0,1,34.49,37.7Z" transform="translate(0 4.14)"/><text y="4.14"/><text y="4.14"/></svg>
