<svg id="Layer_1" data-name="Layer 1" xmlns="http://www.w3.org/2000/svg" viewBox="0 0 54.33 54.33"><defs><style>.cls-1{fill:#fdf3a9;}</style></defs><title>sass</title><path class="cls-1" d="M30,2.83A27.17,27.17,0,1,0,57.17,30,27.17,27.17,0,0,0,30,2.83ZM47.27,15.75a10.54,10.54,0,0,1-.48,2.45,10.21,10.21,0,0,1-1,2.29,8.51,8.51,0,0,1-1.71,1.82A23.74,23.74,0,0,1,40,25.09a17.38,17.38,0,0,1-4.62,1.75,10.88,10.88,0,0,1-4.94,0,8.29,8.29,0,0,1-4.24-2.52,0.15,0.15,0,0,1,.21-0.21l0,0a7.86,7.86,0,0,0,4.19,2,9.46,9.46,0,0,0,2.29.09c0.37,0,.79-0.09,1.11-0.15a10.68,10.68,0,0,0,1.16-.28,16.58,16.58,0,0,0,4.15-1.91A24.41,24.41,0,0,0,43,21c0.27-.26.53-0.52,0.76-0.79S44,20,44,19.87l0-.07h0l0-.07c0-.08.12-0.19,0.14-0.24a9.31,9.31,0,0,0,.67-1.86,6,6,0,0,0,0-3.63,3,3,0,0,0-2.32-1.68,10.27,10.27,0,0,0-2-.24l-0.27,0-0.13,0h0c-0.07,0,.08,0,0.06,0l0,0H40.12l-0.61,0c-0.36,0-.61.05-1,0.11a36,36,0,0,0-8.79,2.42,18.54,18.54,0,0,0-1.92.93l-0.37.24-0.49.33-1,.68a41.72,41.72,0,0,0-3.69,2.78,19.42,19.42,0,0,0-3,3.11,6.44,6.44,0,0,0-1.41,2.91A4.31,4.31,0,0,0,19,28.24a11.92,11.92,0,0,0,1.4,1.44A15,15,0,0,0,22,30.92c0.59,0.33,1,.62,1.54,1s1,0.75,1.55,1.17a15.33,15.33,0,0,1,2.8,3L28,36.19c0.36-.1.73-0.19,1.11-0.25a10.14,10.14,0,0,1,1.94-.17,7.58,7.58,0,0,1,1,.07l0.25,0H32.4l0.09,0,0.1,0L33,36a15.47,15.47,0,0,1,1.76.5,10.2,10.2,0,0,1,1.72.76A6.64,6.64,0,0,1,38,38.45a4.51,4.51,0,0,1,.62.83,2.87,2.87,0,0,1,.37,1h0l0,0.09V40.32a4.91,4.91,0,0,1,.05.85A5.94,5.94,0,0,1,39,42a4.76,4.76,0,0,1-.53,1.56,4.48,4.48,0,0,1-.46.68,4,4,0,0,1-.6.55,3.78,3.78,0,0,1-.67.42,7.25,7.25,0,0,1-.72.29,0.15,0.15,0,0,1-.13-0.27h0a7.15,7.15,0,0,0,.64-0.33,3.39,3.39,0,0,0,.57-0.43,3.6,3.6,0,0,0,.48-0.52A3.94,3.94,0,0,0,38,43.31a4.75,4.75,0,0,0,.25-2.8v0A3.79,3.79,0,0,0,36,38.28a11.85,11.85,0,0,0-3.2-.93,7.66,7.66,0,0,0-3.3.1l-0.68.18c0.06,0.13.13,0.25,0.18,0.38a7.87,7.87,0,0,1,.54,2.47,7.35,7.35,0,0,1-.34,2.58c-0.09.26-.18,0.53-0.31,0.88s-0.24.62-.38,0.92a15.43,15.43,0,0,1-2.07,3.44,10.83,10.83,0,0,1-3.29,2.79,7.54,7.54,0,0,1-4.66.83,7.17,7.17,0,0,1-1.17-.28l-0.14,0-0.07,0-0.18-.07h0l-0.19-.09-0.17-.09-0.27-.15a2.78,2.78,0,0,1-.47-0.34,3.36,3.36,0,0,1-1.12-1.93,4.17,4.17,0,0,1,.06-1.69,7.48,7.48,0,0,1,.92-2.12,15.2,15.2,0,0,1,1.12-1.59c0.39-.49.79-1,1.21-1.4l0.65-.66,0.28-.26L19.08,41l0.36-.28a31.64,31.64,0,0,1,5.79-3.51,16,16,0,0,0-4.71-3.83h0a16.75,16.75,0,0,1-3.76-3.28,7.07,7.07,0,0,1-1.88-4.64A6.23,6.23,0,0,1,15.59,23a13.16,13.16,0,0,1,1.34-2.12,22.35,22.35,0,0,1,3.47-3.55,44.69,44.69,0,0,1,4-2.94C25,14,25.7,13.5,26.44,13.08a21.64,21.64,0,0,1,2.26-1,38.21,38.21,0,0,1,9.57-2.37,13.81,13.81,0,0,1,5,.37,6.17,6.17,0,0,1,2.26,1.12A4.75,4.75,0,0,1,47,13.25,5.78,5.78,0,0,1,47.27,15.75Z" transform="translate(-2.83 -2.83)"/><path class="cls-1" d="M20.73,42.3a6.65,6.65,0,0,0-.61.55l-0.56.63c-0.37.43-.72,0.86-1,1.31A8.56,8.56,0,0,0,17,47.69,1.27,1.27,0,0,0,17.3,49a3.21,3.21,0,0,0,1.47.49,5.09,5.09,0,0,0,3.13-.65A10.2,10.2,0,0,0,26,43.82a15.78,15.78,0,0,0,.56-1.58,4.61,4.61,0,0,0,.18-1.58,5.23,5.23,0,0,0-.56-2A29.5,29.5,0,0,0,20.73,42.3Z" transform="translate(-2.83 -2.83)"/></svg>