<svg id="Layer_1" data-name="Layer 1" xmlns="http://www.w3.org/2000/svg" viewBox="0 0 60 60"><defs><style>.cls-1{fill:#fdf3a9;}</style></defs><title>Xd</title><path class="cls-1" d="M56,4V56H4V4H56m4-4H0V60H60V0h0Z" transform="translate(0 0)"/><path class="cls-1" d="M11.76,40l8.31-11.19L12.74,18.49h3.38L20,24a31.33,31.33,0,0,1,1.73,2.64,28,28,0,0,1,1.7-2.45l4.32-5.7h3.09L23.31,28.61,31.44,40H27.93L22.52,32.3q-0.45-.66-0.94-1.44-0.72,1.17-1,1.61L15.17,40H11.76Z" transform="translate(0 0)"/><path class="cls-1" d="M43.71,40V38a4.84,4.84,0,0,1-4.35,2.31,6.1,6.1,0,0,1-3.42-1,6.74,6.74,0,0,1-2.42-2.86,9.89,9.89,0,0,1-.86-4.23A11.06,11.06,0,0,1,33.44,28a6.12,6.12,0,0,1,2.33-2.91,6.23,6.23,0,0,1,3.47-1,5.19,5.19,0,0,1,4.29,2.14V18.49h2.62V40H43.71ZM35.37,32.2a6.76,6.76,0,0,0,1.26,4.47,3.8,3.8,0,0,0,3,1.48,3.73,3.73,0,0,0,2.94-1.41,6.52,6.52,0,0,0,1.21-4.31,7.32,7.32,0,0,0-1.23-4.69,3.78,3.78,0,0,0-3-1.49,3.65,3.65,0,0,0-2.94,1.44A7.09,7.09,0,0,0,35.37,32.2Z" transform="translate(0 0)"/></svg>